<?xml version="1.0" encoding="UTF-8" standalone="no"?>
<!-- Created with Inkscape (http://www.inkscape.org/) -->

<svg
   version="1.1"
   id="svg1"
   width="32"
   height="32"
   viewBox="0 0 32 32"
   sodipodi:docname="曇り.svg"
   inkscape:version="1.4 (86a8ad7, 2024-10-11)"
   xmlns:inkscape="http://www.inkscape.org/namespaces/inkscape"
   xmlns:sodipodi="http://sodipodi.sourceforge.net/DTD/sodipodi-0.dtd"
   xmlns="http://www.w3.org/2000/svg"
   xmlns:svg="http://www.w3.org/2000/svg">
  <defs
     id="defs1" />
  <sodipodi:namedview
     id="namedview1"
     pagecolor="#ffffff"
     bordercolor="#000000"
     borderopacity="0.25"
     inkscape:showpageshadow="2"
     inkscape:pageopacity="0.0"
     inkscape:pagecheckerboard="0"
     inkscape:deskcolor="#d1d1d1"
     inkscape:zoom="13.296875"
     inkscape:cx="1.6545241"
     inkscape:cy="15.981199"
     inkscape:window-width="1920"
     inkscape:window-height="1111"
     inkscape:window-x="-9"
     inkscape:window-y="-9"
     inkscape:window-maximized="1"
     inkscape:current-layer="g1" />
  <g
     inkscape:groupmode="layer"
     inkscape:label="Image"
     id="g1">
    <g
       id="g2"
       transform="matrix(0.06328023,0,0,0.06328023,-0.26666442,-0.7833109)">
      <path
         id="path8-1"
         style="display:inline;fill:none;stroke:#000000;stroke-width:23.8538;stroke-linecap:round;stroke-dasharray:none;stroke-opacity:1"
         d="m 302.98047,119.13672 c -40.39082,0.68437 -79.36716,23.3928 -94.0332,58.69531 39.90111,-0.0678 80.86128,21.39773 100.85742,73.55664 70.08077,-7.34209 95.72639,40.39068 90.97656,82.27344 147.70605,0 108.77766,-163.56801 4.74805,-140.93555 -20.27852,-52.89548 -62.1191,-74.27487 -102.54883,-73.58984 z"
         sodipodi:nodetypes="sccccs" />
      <path
         style="display:inline;fill:none;stroke:#000000;stroke-width:23.8538;stroke-linecap:round;stroke-dasharray:none;stroke-opacity:1"
         d="m 338.11495,392.32415 c 82.61435,0 93.51239,-153.69834 -28.30964,-140.93552 -43.26084,-112.84369 -184.65516,-82.25256 -201.12902,0 C -8.7997405,228.41555 -9.7911821,392.32415 79.585134,392.32415 Z"
         id="path8"
         sodipodi:nodetypes="ccccc" />
    </g>
  </g>
</svg>
